<svg xmlns="http://www.w3.org/2000/svg" viewBox="0 0 80 80">
  <defs>
    <style>
      .cls-1 {
        fill: #004b92;
      }

      .cls-2 {
        fill: #e1033c;
      }

      .cls-3 {
        fill: #fff;
      }
    </style>
  </defs>
  <g id="AXA_" transform="translate(-14.6 -16.1)">
    <rect id="Rectangle_1582" data-name="Rectangle 1582" class="cls-1" width="80" height="80" transform="translate(14.6 16.1)"/>
    <path id="Path_306" data-name="Path 306" class="cls-2" d="M194.2,55.586,224.627,16.1h-4.472L189.6,55.586h4.6" transform="translate(-130.027)"/>
    <path id="Path_307" data-name="Path 307" class="cls-3" d="M48.188,204.58l2.184-3.006c-.206-.231-1.439-3.982-1.439-3.982L46.8,200.367l1.388,4.213m-12.053-18.6c-.848,1.85-5.911,7.99-5.911,7.99h7.992s-1.542-4.778-1.8-5.832a7.818,7.818,0,0,1-.154-2.107l-.128-.051m30.71,0c-.848,1.85-5.911,7.99-5.911,7.99h7.992s-1.568-4.778-1.825-5.832a9.124,9.124,0,0,1-.154-2.107l-.1-.051m8.892,9.2c1.388,3.9,4.266,14.053,5.422,14.849H73.6a12.415,12.415,0,0,0-.36-2.672c-.334-1.156-3.032-9.942-3.032-9.942h-12l-1.876,2.672s2.261,7.091,2.416,7.425c.231.617,1.336,2.492,1.336,2.492H52.865s-.18-1.079-.257-1.516c-.077-.36-.694-2.364-.694-2.364a21.162,21.162,0,0,0-2.082,2.62c-.463.848-.642,1.259-.642,1.259H43.537s-.18-1.079-.257-1.516c-.051-.36-.745-2.518-.745-2.518a30.889,30.889,0,0,0-2.056,2.749c-.437.848-.642,1.285-.642,1.285H34.208s1.568-1.49,2.107-2.158c.925-1.079,4.42-5.626,4.42-5.626l-1.388-4.8h-11.9s-6.784,8.915-7.041,9.171A23.312,23.312,0,0,0,18.121,210H14.6v-2.235l.128-.154c.1-.077,5.14-6.32,9.765-12.486,4.163-5.369,8.069-10.584,8.4-11.1a37.031,37.031,0,0,0,2.03-3.8H41.1a26.226,26.226,0,0,0,.36,2.954c.154.514,3.906,12.82,3.983,12.948l2.056-2.672-3.546-10.893a17.865,17.865,0,0,0-1.105-2.364h7.2a6.488,6.488,0,0,0,.231,1.952c.283.9,1.825,6.448,1.825,6.448s4.883-6.14,5.191-6.577a3.88,3.88,0,0,0,.591-1.824h5.988a18.99,18.99,0,0,0-3.007,3.237c-.642.8-6.964,8.838-6.964,8.838s.54,1.875.822,2.8c.077.257.128.462.128.462l.385-.462c1.619-2.055,9.046-11.766,9.509-12.614A18.552,18.552,0,0,0,65.92,180.2h5.834a14.808,14.808,0,0,0,.308,2.235Z" transform="translate(0 -121.942)"/>
  </g>
</svg>
