<svg xmlns="http://www.w3.org/2000/svg" viewBox="0 0 186 80">
  <defs>
    <style>
      .cls-1 {
        fill: none;
      }

      .cls-2 {
        fill: #bfcd26;
      }

      .cls-3 {
        fill: #303e48;
      }
    </style>
  </defs>
  <g id="Group_373" data-name="Group 373" transform="translate(1489 -825)">
    <path id="Path_356" data-name="Path 356" class="cls-1" d="M0,0H186V80H0Z" transform="translate(-1489 825)"/>
    <g id="Group_265" data-name="Group 265" transform="translate(-1832 513)">
      <g id="Group_258" data-name="Group 258" transform="translate(32 108)">
        <path id="Path_336" data-name="Path 336" class="cls-2" d="M107.474,45.507a8.422,8.422,0,0,1-3.971-.783,2.785,2.785,0,0,1-1.231-3.86,2.469,2.469,0,0,1,1.37-1.063c.364-.168.364-.308.112-.615-.895-1.063-.755-2.042.392-2.713.559-.308.28-.475,0-.727a3.967,3.967,0,0,1-1.007-5.09,4.331,4.331,0,0,1,3.412-2.126,6.481,6.481,0,0,1,3.412.392c.392.168.587.056.839-.252a3.283,3.283,0,0,1,2.126-1.147c.336-.056.727-.084.727.42,0,.42.28,1.007-.447,1.147a6.225,6.225,0,0,0-1.287.364c-.364.2-.559.42-.252.811,1.706,2.209.587,6.153-3.524,6.433-.5.028-.979,0-1.482,0a1.714,1.714,0,0,0-.755.112c-.364.168-.783.364-.783.811,0,.531.475.559.895.643,1.2.2,2.405,0,3.608.252a5.3,5.3,0,0,1,3.02,1.259,2.914,2.914,0,0,1,0,4.027,6.4,6.4,0,0,1-4.447,1.678A3.228,3.228,0,0,1,107.474,45.507ZM107.5,35.3c1.79,0,2.937-1.007,2.937-2.629a2.629,2.629,0,0,0-2.853-2.741c-1.846-.028-2.965,1.007-2.965,2.685A2.6,2.6,0,0,0,107.5,35.3Zm.336,8.642a5.237,5.237,0,0,0,2.741-.587,1.509,1.509,0,0,0,.867-1.482,1.367,1.367,0,0,0-1.091-1.175,9.15,9.15,0,0,0-4.167-.447,3.971,3.971,0,0,0-1.287.336,1.587,1.587,0,0,0-.951,1.454,1.493,1.493,0,0,0,.923,1.454A6.441,6.441,0,0,0,107.838,43.941Z" transform="translate(245.68 209.486)"/>
        <path id="Path_337" data-name="Path 337" class="cls-2" d="M17,13.273c3.076,0,5.006,1.342,5.789,3.915.168.531.056.755-.5.867-1.091.252-1.091.28-1.538-.755a4.353,4.353,0,0,0-6.488-1.538,2.521,2.521,0,0,0,.364,4.083,12.375,12.375,0,0,0,3.02,1.007A13.333,13.333,0,0,1,20.752,22a4.4,4.4,0,0,1-.587,8.167,7.776,7.776,0,0,1-7.8-.923,5.547,5.547,0,0,1-1.93-3.3c-.084-.364.028-.587.392-.671.2-.056.42-.084.615-.14.587-.2.839.028,1.007.587a4.926,4.926,0,0,0,7.439,2.461,2.539,2.539,0,0,0-.28-4.391A18.646,18.646,0,0,0,15.718,22.5a7.606,7.606,0,0,1-3.1-1.482,4.309,4.309,0,0,1,1.65-7.3A7.032,7.032,0,0,1,17,13.273Z" transform="translate(311.595 219.738)"/>
        <path id="Path_338" data-name="Path 338" class="cls-2" d="M67.542,37.415H63.794c-.308,0-.615,0-.643.447a4.161,4.161,0,0,0,2.321,3.692,3.419,3.419,0,0,0,4.307-1.482c.168-.252.224-.671.615-.615a2.808,2.808,0,0,1,1.37.559c.224.168,0,.447-.112.643a5.558,5.558,0,0,1-5.873,2.629,5.4,5.4,0,0,1-4.587-5.2,8,8,0,0,1,.643-4.279,5.449,5.449,0,0,1,6.041-2.881,4.881,4.881,0,0,1,4.083,4.615c0,.112.028.224.028.364.14,1.51.14,1.51-1.342,1.51ZM66.507,35.96h2.769c.336,0,.671-.028.615-.475a3.172,3.172,0,0,0-2.321-3.02c-2.07-.447-3.692.811-4.223,2.881-.112.447.084.615.5.615Z" transform="translate(275.04 207.091)"/>
        <path id="Path_339" data-name="Path 339" class="cls-2" d="M228.793,37.226a6,6,0,0,1-1.482,4.531,5.934,5.934,0,0,1-6.321,1.4,5.613,5.613,0,0,1-3.552-5.09,8.131,8.131,0,0,1,.475-3.748,5.565,5.565,0,0,1,6.321-3.272,5.469,5.469,0,0,1,4.559,5.2Zm-1.986-.112c-.028-.364-.028-.755-.084-1.119a8.852,8.852,0,0,0-.336-1.231,3.4,3.4,0,0,0-3.188-2.293,3.263,3.263,0,0,0-3.216,2.042,6.454,6.454,0,0,0,0,5.426,3.209,3.209,0,0,0,3.3,1.958,3.248,3.248,0,0,0,3.02-2.1A6.288,6.288,0,0,0,226.807,37.114Z" transform="translate(162.481 207)"/>
        <path id="Path_340" data-name="Path 340" class="cls-2" d="M266.23,30.976c2.181-.028,3.748.671,4.671,2.461.14.308.531.643,0,.979-.671.392-1.286.336-1.594-.168a3.255,3.255,0,0,0-4.167-1.538,1.647,1.647,0,0,0-1.2,1.79,1.392,1.392,0,0,0,.755,1.119,8.793,8.793,0,0,0,2.014.615,9.354,9.354,0,0,1,3.44,1.2,3.012,3.012,0,0,1,.168,4.866,6.592,6.592,0,0,1-7.719-.084,4.255,4.255,0,0,1-1.231-1.958c-.14-.42,0-.615.392-.7.224-.056.448-.112.7-.168a.486.486,0,0,1,.7.364c.839,2.517,3.664,2.489,5.342,1.818a1.467,1.467,0,0,0,.951-1.454,1.446,1.446,0,0,0-.951-1.37,10.255,10.255,0,0,0-2.237-.643,9.9,9.9,0,0,1-2.489-.783,3.026,3.026,0,0,1-1.818-2.741,3.16,3.16,0,0,1,1.734-2.965A4.484,4.484,0,0,1,266.23,30.976Z" transform="translate(130.861 206.985)"/>
        <path id="Path_341" data-name="Path 341" class="cls-2" d="M155.156,41.828a5.586,5.586,0,0,1-2.349,2.014,4.017,4.017,0,0,1-5.705-3.776c-.084-2.461,0-4.894-.028-7.355,0-.867.531-.755,1.091-.783s.951.056.923.783c-.028,2.126,0,4.251-.028,6.377a9.252,9.252,0,0,0,.14,1.538,2.115,2.115,0,0,0,2.265,1.9,3.516,3.516,0,0,0,3.44-2.461,7.151,7.151,0,0,0,.364-2.293c0-1.678.028-3.356,0-5.034-.028-.755.364-.839.979-.839.587,0,1.063-.028,1.063.811-.028,3.412-.028,6.852,0,10.264,0,.811-.447.839-1.063.839-.587,0-1.063-.028-.979-.811A2.252,2.252,0,0,0,155.156,41.828Z" transform="translate(213.157 206.313)"/>
        <path id="Path_342" data-name="Path 342" class="cls-2" d="M193.709,33.912a4.108,4.108,0,0,1,3.216-2.293c.364-.056.811-.2,1.035.2a1.788,1.788,0,0,1,.028,1.37c-.056.252-.336.224-.531.224-2.713,0-3.943,1.846-3.915,4.279v5.034c0,.867-.056.867-1.035.895-.615.028-1.007-.056-1.007-.867.028-3.384,0-6.8.028-10.208,0-.839.056-.867,1.063-.839.895,0,.951.028.951.895v1.259C193.6,33.884,193.653,33.884,193.709,33.912Z" transform="translate(181.147 206.566)"/>
      </g>
      <path id="Path_353" data-name="Path 353" class="cls-3" d="M42.645,181.307a7.55,7.55,0,0,1,3.084,2.237c.744.938.875,2.6.875,4.012a6.449,6.449,0,0,1-.7,3.093,5.859,5.859,0,0,1-1.923,2.122,9.041,9.041,0,0,1-2.838,1.234,14.586,14.586,0,0,1-3.489.395H25.3v-24H37.053c1.147,0,3.6.318,3.6.318a16.95,16.95,0,0,1,1.994.673,2.8,2.8,0,0,1,1.21.741,3.311,3.311,0,0,1,.93,1.154,4.284,4.284,0,0,1,.678,1.507,3.934,3.934,0,0,1,.151,1.514c.119,1.977-1.2,3.492-2.968,4.709l-.015.291Zm-5.985-1.424.628-.081s.216-.052.463-.126a4.038,4.038,0,0,0,.52-.208,1.227,1.227,0,0,0,.448-.26,1.555,1.555,0,0,0,.39-.513,2.427,2.427,0,0,0,.224-.56,3.107,3.107,0,0,0,.062-.637c0-.11-.072-.594-.072-.594a2.292,2.292,0,0,0-.2-.6c-.151-.3-.117-.362-.407-.607a2.326,2.326,0,0,0-.752-.373,3.848,3.848,0,0,0-1.111-.188h-5.14v4.749l4.944.016ZM31.716,184v5.447h3.609a12.879,12.879,0,0,0,3.347-.176,2.114,2.114,0,0,0,1.7-2.241,2.568,2.568,0,0,0-.977-2.422c-.744-.526-.791-.607-2.341-.607H31.716Z" transform="translate(421.076 169.6)"/>
      <path id="Path_354" data-name="Path 354" class="cls-2" d="M365.4,176.559h-8.788V168h-6.425v8.559H341.4v6.258h8.788v8.559h6.425v-8.559H365.4Z" transform="translate(152.164 173)"/>
      <path id="Path_355" data-name="Path 355" class="cls-2" d="M202.8,173.719l-4.619-4.619-7.381,7.4-7.4-7.4-4.6,4.619,7.381,7.381-7.381,7.4,4.6,4.6,7.4-7.381,7.381,7.381,4.619-4.6-7.4-7.4Z" transform="translate(290.164 170.9)"/>
    </g>
  </g>
</svg>
