<svg xmlns="http://www.w3.org/2000/svg" viewBox="0 0 195.75 80">
  <defs>
    <style>
      .cls-1 {
        fill: #224c8a;
      }

      .cls-2 {
        fill: #dd8c3d;
      }

      .cls-3 {
        fill: none;
      }
    </style>
  </defs>
  <g id="Group_256" data-name="Group 256" transform="translate(-258 -685)">
    <g id="Group_250" data-name="Group 250" transform="translate(263 690)">
      <path id="Path_308" data-name="Path 308" class="cls-1" d="M492.551,308.942c0-1.934.34-2.615-1.807-3.784h0l-1.488-.744v-1.339h14.9v1.339l-1.509.6h0c-2.253.914-2.253,1.169-2.211,3.911h0l.021,11.011-.553.531h0c-2.593.659-8.673,2.317-14.157,2.317-12.563,0-18.749-6.5-18.749-20.6,0-15.135,8.737-21.682,20.216-21.682,3.082,0,8.673,0,12.563,3.295a3.57,3.57,0,0,1,1.4,2.785,2.465,2.465,0,0,1-.361,1.467h0l-2.785,5.442h-1.042c0-2.678-3.1-9.778-11.181-9.778-9.353,0-9.821,6.526-9.821,17.58,0,9.672,1.02,18.366,12.2,18.366,3.614,0,4.273-1.913,4.379-4.039-.021-.021-.021-5.591-.021-6.675Z" transform="translate(-409.223 -275.505)"/>
      <path id="Path_309" data-name="Path 309" class="cls-1" d="M659.3,323.747l2.678-1.084h0c2.189-.85,2.189-2.445,2.189-5.952h0v-25.36h0a4.093,4.093,0,0,0-2.062-3.954h0l-2.445-1.637v-1.339h11.054l.659.4h0c1.212,1.637,3.741,6.037,7.164,10.629h0l11.734,15.964h0c.489.659.744.957.957.957.489,0,.489-.6.489-1.7h0v-19.3h0c0-2.785-.043-3.337-2.423-4.294h0l-3.465-1.339V284.4h13.924v1.339l-1.764.659h0c-2.593,1.042-3.1,1.637-3.1,5.633h0v23.957h0c0,3.656.064,7.355.064,8.63h0l-.4.489h-3.4l-.659-.489h0c-.553-.659-3.7-5.1-6.93-9.417h0l-14.221-19h0c-.787-1.042-1.148-1.594-1.445-1.594-.553,0-.553.616-.553,1.467h0V317.8h0c0,2.912,0,3.848,2.551,4.7h0l3.593,1.275v1.339H659.321v-1.36Z" transform="translate(-560.646 -278.576)"/>
      <path id="Path_310" data-name="Path 310" class="cls-1" d="M866.221,323.826l2.678-.893h0c2-.659,2.062-1.764,2.062-5.591h0V291.09h0c0-2.891,0-3.635-2.062-4.294h0l-2.678-.957V284.5h20.13c7.036,0,13.945,1.509,13.945,10.735,0,8.439-6.292,13.668-16.155,13.668-.4,0-.957-.064-1.339-.064h0l-.893-2.189.489-.489h0c4.421-.106,9.778-1.934,9.013-10.458-.6-6.654-2.53-7.887-7.993-7.887-3.7,0-3.954.553-3.954,2.062h0v27.464h0c0,4.081-.064,4.932,2.359,5.591h0l3.146.893v1.339H866.2v-1.339Z" transform="translate(-723.564 -278.654)"/>
      <path id="Path_311" data-name="Path 311" class="cls-1" d="M594.926,502.35H467v-.85H594.926Z" transform="translate(-409.223 -449.526)"/>
      <path id="Path_312" data-name="Path 312" class="cls-2" d="M299.183,354.081a6.792,6.792,0,1,1-6.8-6.781,6.79,6.79,0,0,1,6.8,6.781Z" transform="translate(-266.383 -328.104)"/>
      <path id="Path_313" data-name="Path 313" class="cls-2" d="M209.967,271.625H195.3l2.976,9.077h7.312v-.021h0a13.449,13.449,0,0,0,13.435-13.435h0v-7.27L209.989,257v14.625Z" transform="translate(-195.279 -257)"/>
      <path id="Path_314" data-name="Path 314" class="cls-2" d="M209.846,398.856V413.5l9.077-2.955v-7.312H218.9A13.449,13.449,0,0,0,205.467,389.8h-7.291l-2.976,9.034h14.646Z" transform="translate(-195.2 -361.57)"/>
      <path id="Path_315" data-name="Path 315" class="cls-2" d="M337.156,398.956h14.668l-3-9.056h-7.312A13.459,13.459,0,0,0,328.1,403.335h0v7.291l9.034,2.976V398.956Z" transform="translate(-299.849 -361.649)"/>
      <path id="Path_316" data-name="Path 316" class="cls-2" d="M337.256,271.746V257.1l-9.056,2.955v7.313h0A13.491,13.491,0,0,0,341.635,280.8h7.291l3-9.034H337.256Z" transform="translate(-299.928 -257.079)"/>
      <path id="Path_317" data-name="Path 317" class="cls-1" d="M1040.5,285.159a2.749,2.749,0,0,1,0,5.484v.638a3.391,3.391,0,0,0,0-6.781v.659Zm0,3.252V287.6h.021c.447,0,.786-.064.786-.574,0-.468-.4-.531-.765-.531h-.043v-.553h.106c.914,0,1.424.319,1.424,1.127a.965.965,0,0,1-1.021,1.042h0l1.042,1.7h-.744Zm0,2.232a2.748,2.748,0,0,1,0-5.484h0V284.5h0a3.391,3.391,0,1,0,0,6.781h0v-.638Zm0-4.7v.553h-.6V287.6h.6v.808l-.17-.255h-.447v1.658h-.723v-3.869Z" transform="translate(-858.136 -278.654)"/>
      <g id="Group_249" data-name="Group 249" transform="translate(57.692 59.18)">
        <path id="Path_318" data-name="Path 318" class="cls-1" d="M469.767,546.2a5.32,5.32,0,0,1-2.657-.6,5.013,5.013,0,0,1-.51-2.53.381.381,0,0,1,.6-.042c.319,1.02,1.36,2.445,2.678,2.445a1.556,1.556,0,0,0,1.679-1.573c0-1.276-1.19-2.02-2.126-2.487a3.593,3.593,0,0,1-2.36-3.04c-.021-1.764,1.361-2.976,3.635-2.976a6.339,6.339,0,0,1,1.786.255c.213.064.34.085.531.127a7.565,7.565,0,0,1,.276,2.232.417.417,0,0,1-.617.042c-.255-.808-.935-1.934-2.062-1.934a1.45,1.45,0,0,0-1.594,1.445,2.278,2.278,0,0,0,1.424,1.786l1.042.553a3.554,3.554,0,0,1,2.211,3.146C473.7,544.945,472.127,546.2,469.767,546.2Z" transform="translate(-466.6 -535.4)"/>
        <path id="Path_319" data-name="Path 319" class="cls-1" d="M545.787,540.324c0,.446.021.468.446.468h1.084c.808,0,1-.106,1.148-.85l.085-.383c.106-.127.51-.127.574.021-.021.51-.042,1.063-.042,1.658s.021,1.148.042,1.658c-.085.149-.468.149-.574.021l-.085-.383c-.149-.744-.34-.872-1.148-.872h-1.084c-.425,0-.446.021-.446.489V544a2.815,2.815,0,0,0,.255,1.488c.213.276.51.4,1.637.4,1.361,0,1.892-.043,2.742-1.807a.375.375,0,0,1,.574.085,9.247,9.247,0,0,1-.659,2.508c-.829-.021-2.338-.042-3.614-.042h-2c-.744,0-1.509.021-2.678.042a.446.446,0,0,1,0-.552l.744-.106c.7-.106.808-.213.808-1.637V538.5c0-1.424-.085-1.509-.808-1.658l-.383-.085c-.149-.085-.128-.446.021-.553.744.021,1.509.042,2.253.042H548c1,0,1.892-.021,2.1-.042.021.255.127,1.382.212,2.424-.064.17-.425.212-.574.064a3.311,3.311,0,0,0-.6-1.233,2.049,2.049,0,0,0-1.531-.489h-1.254c-.51,0-.51.021-.51.616v2.742Z" transform="translate(-525.933 -536.03)"/>
        <path id="Path_320" data-name="Path 320" class="cls-1" d="M636.436,544.179c0,.659.021.978.319,1.042a.362.362,0,0,1-.042.383,5.612,5.612,0,0,0-1.084.234,12.189,12.189,0,0,1-2.764.383,7.647,7.647,0,0,1-3.082-.552,4.932,4.932,0,0,1-3.082-4.719,5.169,5.169,0,0,1,2.742-4.719,7.714,7.714,0,0,1,3.656-.829,19.787,19.787,0,0,1,3.1.382c.042.468.064,1.573.213,2.508-.064.17-.489.191-.6.021a2.917,2.917,0,0,0-2.934-2.211c-2.487,0-3.7,2.062-3.7,4.528,0,2.232.765,3.571,1.786,4.251a3.757,3.757,0,0,0,2.147.6c.893,0,1.084-.17,1.084-1.19v-.978c0-.85-.085-.935-.85-1.041l-.68-.085a.363.363,0,0,1,0-.553c1.105.021,1.871.042,2.636.042.744,0,1.509-.021,2.041-.042a.447.447,0,0,1,0,.553l-.361.064c-.468.085-.553.234-.553,1.084Z" transform="translate(-592.667 -535.4)"/>
        <path id="Path_321" data-name="Path 321" class="cls-1" d="M719.916,538.517c0-1.446-.085-1.552-.808-1.679l-.383-.085c-.128-.085-.149-.446.021-.532.744.021,1.53.043,2.274.043.765,0,1.53-.021,2.275-.043a.417.417,0,0,1,0,.532l-.383.064c-.7.128-.808.255-.808,1.7v3.614c0,1.828.213,3.848,2.572,3.848,2,0,2.615-1.743,2.615-3.89V540.2a11.1,11.1,0,0,0-.234-2.87c-.149-.319-.489-.425-.914-.51l-.425-.085a.481.481,0,0,1,0-.531c.85.021,1.445.042,2.1.042.574,0,1.148-.021,1.743-.042a.481.481,0,0,1,0,.531l-.276.064c-.4.085-.7.191-.85.51a10.982,10.982,0,0,0-.234,2.87v1.743a5.466,5.466,0,0,1-1,3.762,4.177,4.177,0,0,1-3.1,1.127,4.774,4.774,0,0,1-3.1-.872c-.808-.68-1.148-1.828-1.148-3.529v-3.89Z" transform="translate(-665.052 -536.03)"/>
        <path id="Path_322" data-name="Path 322" class="cls-1" d="M813.479,538.793c0-1.573-.021-1.743-.68-1.828l-.425-.064a.38.38,0,0,1,.021-.553c1.169-.085,2.381-.149,3.869-.149a6.884,6.884,0,0,1,3.061.553,2.559,2.559,0,0,1,1.382,2.317,2.52,2.52,0,0,1-1.658,2.338c-.149.085-.149.17-.085.34,1.042,2.1,1.679,3.274,2.423,3.911a2.047,2.047,0,0,0,1.042.446.284.284,0,0,1,.064.4,3.811,3.811,0,0,1-1.233.149,3.2,3.2,0,0,1-3.04-1.637,18.423,18.423,0,0,1-1.212-2.423.8.8,0,0,0-.829-.553c-.553,0-.574.021-.574.34V544.3c0,1.445.085,1.552.786,1.679l.425.085a.519.519,0,0,1,0,.553c-.829-.021-1.552-.042-2.3-.042-.786,0-1.467.021-2.275.042a.447.447,0,0,1,0-.553l.425-.085c.7-.128.808-.234.808-1.679Zm2.147,2c0,.552.042.6.978.6a1.524,1.524,0,0,0,1.191-.446,2.334,2.334,0,0,0,.553-1.679,2.07,2.07,0,0,0-2.041-2.317c-.638,0-.68.043-.68.787Z" transform="translate(-738.696 -536.03)"/>
        <path id="Path_323" data-name="Path 323" class="cls-1" d="M909.654,540.756c0,3.4-2.275,5.463-5.633,5.463a5.1,5.1,0,0,1-5.421-5.336,5.374,5.374,0,0,1,5.569-5.484A5.144,5.144,0,0,1,909.654,540.756Zm-5.612-4.655c-1.913,0-2.955,1.807-2.955,4.4,0,1.913.68,4.974,3.21,4.974,2.041,0,2.848-2,2.848-4.528C907.145,538.269,905.976,536.1,904.042,536.1Z" transform="translate(-806.769 -535.399)"/>
        <path id="Path_324" data-name="Path 324" class="cls-1" d="M997.267,546.2a5.321,5.321,0,0,1-2.657-.6,5.013,5.013,0,0,1-.51-2.53.381.381,0,0,1,.6-.042c.319,1.02,1.36,2.445,2.678,2.445a1.556,1.556,0,0,0,1.679-1.573c0-1.276-1.19-2.02-2.126-2.487a3.593,3.593,0,0,1-2.36-3.04c-.021-1.764,1.361-2.976,3.635-2.976a6.339,6.339,0,0,1,1.786.255c.213.064.34.085.531.127a7.555,7.555,0,0,1,.277,2.232.417.417,0,0,1-.616.042c-.255-.808-.935-1.934-2.062-1.934a1.449,1.449,0,0,0-1.594,1.445,2.278,2.278,0,0,0,1.424,1.786l1.042.553a3.554,3.554,0,0,1,2.211,3.146C1001.221,544.945,999.627,546.2,997.267,546.2Z" transform="translate(-881.968 -535.4)"/>
      </g>
    </g>
    <rect id="Rectangle_1583" data-name="Rectangle 1583" class="cls-3" width="195.75" height="80" transform="translate(258 685)"/>
  </g>
</svg>
