<?xml version="1.0" encoding="utf-8"?>
<!-- Generator: Adobe Illustrator 22.1.0, SVG Export Plug-In . SVG Version: 6.00 Build 0)  -->
<svg version="1.1" id="Layer_1" xmlns="http://www.w3.org/2000/svg" xmlns:xlink="http://www.w3.org/1999/xlink" x="0px" y="0px"
	 viewBox="0 0 852 402" style="enable-background:new 0 0 852 402;" xml:space="preserve">
<style type="text/css">
	.st0{fill:#FF671D;}
	.st1{fill:#FFFFFF;}
</style>
<g>
	<path class="st0" d="M160.9,0h48.3v402.3h-48.3V0z"/>
	<path class="st1" d="M129.2,321.9H-0.3V90.1h53.7v178.5h75.8V321.9z"/>
	<path class="st1" d="M382.9,90.4h53.7v231.5h-58.1l-76.2-135v135h-53.7V91H307l75.9,134.7V90.4z"/>
	<path class="st1" d="M619.3,143.7h-95.9v35h77.8V232h-77.8v36.6h95.9v53.3H469.7V90.7l149.6-0.3V143.7z"/>
	<path class="st1" d="M795.1,321.9l-9.2-28.1h-73.4l-9.5,28.1h-56.9l79.4-231.5h50.8l75.3,231.5H795.1z M730.9,240.5h37.8
		l-18.4-56.1L730.9,240.5z"/>
</g>
</svg>
