<svg id="Layer_1" data-name="Layer 1" xmlns="http://www.w3.org/2000/svg" viewBox="0 0 851.94 402.34"><defs><style>.cls-1{fill:#ff671d;}.cls-2{fill:#003a70;}</style></defs><title>Logo Linea Seguros</title><path class="cls-1" d="M160.91,0h48.35V402.34H160.91Z" transform="translate(0.34 0)"/><path class="cls-2" d="M129.16,321.87H-.34V90.09H53.34V268.57h75.82Z" transform="translate(0.34 0)"/><path class="cls-2" d="M382.93,90.4h53.69V321.87H378.49l-76.24-135v135H248.56V91H307l75.92,134.65Z" transform="translate(0.34 0)"/><path class="cls-2" d="M619.31,143.7H523.38v35h77.83V232H523.38v36.58h95.93v53.3H469.7V90.72l149.61-.32Z" transform="translate(0.34 0)"/><path class="cls-2" d="M795.06,321.87l-9.21-28.07H712.47l-9.53,28.07H646.08L725.49,90.4h50.83L851.6,321.87Zm-64.17-81.36H768.7l-18.43-56.13Z" transform="translate(0.34 0)"/></svg>