<svg xmlns="http://www.w3.org/2000/svg" viewBox="0 0 166.603 80">
  <defs>
    <style>
      .cls-1 {
        fill: #cb3532;
        fill-rule: evenodd;
      }
    </style>
  </defs>
  <g id="Group_255" data-name="Group 255" transform="translate(-881.494 -659.201)">
    <g id="Group_254" data-name="Group 254" transform="translate(942.131 659.201)">
      <path id="Path_328" data-name="Path 328" class="cls-1" d="M94.045,209.4A23.724,23.724,0,1,1,70.3,233.124,23.718,23.718,0,0,1,94.045,209.4Zm0,2.25a21.474,21.474,0,1,0,21.493,21.474A21.48,21.48,0,0,0,94.045,211.65Z" transform="translate(-70.3 -209.4)"/>
      <path id="Path_329" data-name="Path 329" class="cls-1" d="M112.157,262.827v7.265h-2.317v-7.265c-1.126,0-2.574,0-3.121-.032L99,262.827a3.789,3.789,0,0,1-1.93-.45,3.592,3.592,0,0,1-1.77-3.183c0-.193.032-.354.032-.482a13.644,13.644,0,0,1,1.641-4.468,13.19,13.19,0,0,1,3.089-3.665,3.9,3.9,0,0,1,2.992-.707,3.827,3.827,0,0,1,1.9-2.282c.161-.1.322-.161.45-.225a16.135,16.135,0,0,1,5.6-.964,16.471,16.471,0,0,1,5.631,1,4.272,4.272,0,0,1,2.284,2.443,3.421,3.421,0,0,1,2.831.611,15.481,15.481,0,0,1,3.25,3.793,13.644,13.644,0,0,1,1.641,4.468,2.126,2.126,0,0,1,.032.482,3.465,3.465,0,0,1-1.77,3.183,3.238,3.238,0,0,1-1.93.45l-7.722-.032c-.515.032-1.963.032-3.089.032Zm8.237-10.544a1.218,1.218,0,0,0-1.319-.1,1.135,1.135,0,0,0-.483.546l-3.925,6.815a.571.571,0,0,0,.515.9l7.851.032a1.012,1.012,0,0,0,.676-.161,1.154,1.154,0,0,0,.579-1.125v-.129a11.575,11.575,0,0,0-1.351-3.729,11.308,11.308,0,0,0-2.574-3.054c.064.032.032.032.032,0Zm-18.79,0-.032.032A11.915,11.915,0,0,0,99,255.369a11.574,11.574,0,0,0-1.351,3.729v.129a1.213,1.213,0,0,0,.579,1.125,1.307,1.307,0,0,0,.676.161l7.851-.032a.541.541,0,0,0,.547-.289.53.53,0,0,0-.032-.611l-3.925-6.815a1.135,1.135,0,0,0-.483-.546,1.118,1.118,0,0,0-1.255.064Zm14.286-2.732c-.032,0-.032,0-.064-.032a14.1,14.1,0,0,0-4.826-.836,13.917,13.917,0,0,0-4.794.836c-.064.032-.1.032-.129.064a1.472,1.472,0,0,0-.837,1.318,1.432,1.432,0,0,0,.257.836l4.858,8.358a.7.7,0,0,0,.644.418.732.732,0,0,0,.644-.386l4.858-8.358a1.456,1.456,0,0,0-.611-2.218Z" transform="translate(-87.254 -234.506)"/>
    </g>
    <g id="Group_253" data-name="Group 253" transform="translate(881.494 715.445)">
      <path id="Path_330" data-name="Path 330" class="cls-1" d="M263.584,244.6l5.792,11.862,5.792-11.862h8.784v23.724h-8.784V256.462l-5.792,11.862-5.792-11.862v11.862H254.8V244.6Z" transform="translate(-254.8 -244.568)"/>
      <path id="Path_331" data-name="Path 331" class="cls-1" d="M368.675,248.136,365.1,260.512h7.111l-3.539-12.376ZM354.1,268.324l6.821-23.724h15.508l6.821,23.724h-8.784l-1.126-3.89h-9.363l-1.126,3.89Z" transform="translate(-322.15 -244.568)"/>
      <path id="Path_332" data-name="Path 332" class="cls-1" d="M464.211,247.3c1.963,0,3.893,1.061,3.893,3.215a3.864,3.864,0,0,1-3.893,3.89h-1.9v-7.1Zm5.6-2.7H453.4v23.724h8.784v-9.869h7.658a6.928,6.928,0,1,0-.032-13.855Z" transform="translate(-389.5 -244.568)"/>
      <path id="Path_333" data-name="Path 333" class="cls-1" d="M535.4,244.6h23.327v3.89H544.152V254.5h14.575v3.922H544.152v9.9H535.4Z" transform="translate(-445.117 -244.568)"/>
      <path id="Path_334" data-name="Path 334" class="cls-1" d="M708.884,264.367h14.543v3.89H700.1V244.5h23.327v3.922H708.884v6.011h14.543v3.922H708.884Z" transform="translate(-556.824 -244.5)"/>
      <path id="Path_335" data-name="Path 335" class="cls-1" d="M628.211,247.3c1.931,0,3.893,1.061,3.893,3.215a3.884,3.884,0,0,1-3.893,3.89h-1.9v-7.1Zm12.516,14.884v0Zm0,.193v-.193a5.927,5.927,0,0,0-5.92-5.722,5.931,5.931,0,0,0,0-11.862H617.4v23.724h8.913v-9.837h1.9a3.884,3.884,0,0,1,3.893,3.89v5.947h8.623Z" transform="translate(-500.733 -244.568)"/>
    </g>
  </g>
</svg>
