<svg xmlns="http://www.w3.org/2000/svg" viewBox="0 0 290.37 91.75"><defs><style>.cls-1{fill:#36b0e5;}.cls-2{fill:#414042;}</style></defs><title>Asset 1</title><g id="Layer_2" data-name="Layer 2"><g id="Altenate_logo1" data-name="Altenate logo1"><path class="cls-1" d="M85.88,10C59.21,10,43,0,43,0S26.79,10,.12,10c0,0-1.56,31,6.62,50h22a9.66,9.66,0,1,0,0-9.48H12.47c-3.9-14.48-3-32.64-3-32.64C30.33,17.82,43,10,43,10s12.69,7.8,33.53,7.8c0,0,0,1.73.07,3.11H86C86.08,14.92,85.88,10,85.88,10ZM37.18,50.35a4.84,4.84,0,1,1-4.83,4.84A4.84,4.84,0,0,1,37.18,50.35Z"/><path class="cls-2" d="M48.64,22.37A9.67,9.67,0,1,0,57,36.88H76.07c-.68,7.59-2.14,14.57-5.22,21.07C66,68.15,57,76.77,43,81.73c-9.77-3.46-17.09-8.71-22.27-15H10.31c6.63,10.68,17.27,19.6,32.67,25,18-6.34,29.45-17.38,35.65-30.42,4.6-9.71,6.61-23.24,7.26-33.93H57.11A9.67,9.67,0,0,0,48.64,22.37Zm0,14.5A4.84,4.84,0,1,1,53.47,32,4.84,4.84,0,0,1,48.64,36.87Z"/><path class="cls-2" d="M127.32,27c0,4.29-2.68,6.79-7.33,6.79h-3.25v5.05H112V20.61h8C124.64,20.61,127.32,23,127.32,27Zm-4.52.16c0-1.79-1.12-2.76-3-2.76h-3V30h3C121.68,30,122.8,29,122.8,27.16Z"/><path class="cls-2" d="M141.31,38.84l-2.65-5.05h-3.54v5.05h-4.76V20.61h8.19c4.84,0,7.6,2.34,7.6,6.39a6.16,6.16,0,0,1-3.26,5.88l3.8,6ZM135.12,30h3.46c1.92,0,3-1,3-2.83s-1.12-2.76-3-2.76h-3.46Z"/><path class="cls-2" d="M168.43,29.71c0,5.33-4.22,9.33-9.86,9.33s-9.85-4-9.85-9.33,4.21-9.23,9.85-9.23S168.43,24.43,168.43,29.71Zm-14.82,0a5.14,5.14,0,0,0,5,5.25,5,5,0,0,0,4.92-5.25,5,5,0,0,0-4.92-5.21A5.08,5.08,0,0,0,153.61,29.74Z"/><path class="cls-2" d="M184.94,20.61v3.92h-5.46V38.84h-4.76V24.53h-5.41V20.61Z"/><path class="cls-2" d="M201.94,20.61V24.4h-9.62v3.41H201v3.77l-8.68,0V35h9.88v3.8H187.56V20.61Z"/><path class="cls-2" d="M214.47,24.51a4.93,4.93,0,0,0-4.94,5.12,5,5,0,0,0,4.94,5.18A6.79,6.79,0,0,0,219,32.67l2.78,3A10.87,10.87,0,0,1,214.21,39a9.23,9.23,0,0,1-9.57-9.36c0-5.25,4.19-9.2,9.75-9.2a10.43,10.43,0,0,1,7.36,3.12L219,26.9A6.23,6.23,0,0,0,214.47,24.51Z"/><path class="cls-2" d="M232.85,24.51a4.94,4.94,0,0,0-4.94,5.12,5,5,0,0,0,4.94,5.18,6.79,6.79,0,0,0,4.53-2.14l2.78,3A10.87,10.87,0,0,1,232.59,39,9.22,9.22,0,0,1,223,29.68c0-5.25,4.18-9.2,9.75-9.2a10.42,10.42,0,0,1,7.35,3.12l-2.75,3.3A6.23,6.23,0,0,0,232.85,24.51Z"/><path class="cls-2" d="M247.65,20.61V38.84h-4.76V20.61Z"/><path class="cls-2" d="M270.42,29.71c0,5.33-4.21,9.33-9.85,9.33s-9.86-4-9.86-9.33,4.22-9.23,9.86-9.23S270.42,24.43,270.42,29.71Zm-14.82,0a5.15,5.15,0,0,0,5,5.25,5,5,0,0,0,4.92-5.25,5,5,0,0,0-4.92-5.21A5.09,5.09,0,0,0,255.6,29.74Z"/><path class="cls-2" d="M277.68,20.61l8.27,11v-11h4.42V38.84H286.2l-8.26-10.93V38.84h-4.45V20.61Z"/><path class="cls-2" d="M126.36,51.81v3.8h-9.62V59h8.68v3.77l-8.68,0v3.43h9.88V70H112V51.81Z"/><path class="cls-2" d="M134.42,51.81l8.27,11v-11h4.42V70H143l-8.27-10.93V70h-4.45V51.81Z"/><path class="cls-2" d="M164.63,51.81V66h7.72V70H159.87V51.81Z"/><path class="cls-2" d="M180,51.81V70h-4.76V51.81Zm.95-3.39-2.14,1.88h-2.2l1.74-2.79Zm82.18-31.2L261,19.1h-2.21l1.75-2.79Z"/><path class="cls-2" d="M188.39,51.81l8.27,11v-11h4.42V70h-4.16l-8.27-10.93V70h-4.44V51.81Z"/><path class="cls-2" d="M219.72,51.81v3.8H210.1V59h8.69v3.77l-8.69,0v3.43H220V70H205.34V51.81Z"/><path class="cls-2" d="M235.74,66.81h-7.88L226.59,70H221.7l7.83-18.23h4.88L242.06,70H237Zm-1.41-3.64-2.49-6.5-2.55,6.5Z"/></g></g></svg>